HIERARCHY
ROOT Hips
{
	OFFSET 0.000000 0.000000 0.000000
	CHANNELS 6 Xposition Yposition Zposition Xrotation Yrotation Zrotation
	JOINT LeftUpLeg_virtual
	{
		OFFSET 0.000000 0.000000 0.000000
		CHANNELS 3 Xrotation Yrotation Zrotation
		JOINT LeftUpLeg
		{
			OFFSET 10.205400 -3.823500 0.155100
			CHANNELS 3 Xrotation Yrotation Zrotation
			JOINT LeftLeg
			{
				OFFSET 0.708757 -12.982077 0.567790
				CHANNELS 3 Xrotation Yrotation Zrotation
				JOINT LeftFoot
				{
					OFFSET -0.708756 -10.717838 -2.184338
					CHANNELS 3 Xrotation Yrotation Zrotation
					JOINT LeftToeBase
					{
						OFFSET 0.108149 -7.191104 7.560241
						CHANNELS 3 Xrotation Yrotation Zrotation
						JOINT LeftToe_End
						{
							OFFSET 0.070230 0.081724 4.490308
							CHANNELS 3 Xrotation Yrotation Zrotation
							End Site
							{
								OFFSET 0 0 0
							}
						}
					}
				}
			}
		}
	}
	JOINT RightUpLeg_virtual
	{
		OFFSET 0.000000 0.000000 0.000000
		CHANNELS 3 Xrotation Yrotation Zrotation
		JOINT RightUpLeg
		{
			OFFSET -10.205400 -3.823500 0.005500
			CHANNELS 3 Xrotation Yrotation Zrotation
			JOINT RightLeg
			{
				OFFSET -0.708756 -12.982134 0.610632
				CHANNELS 3 Xrotation Yrotation Zrotation
				JOINT RightFoot
				{
					OFFSET 0.708754 -10.717769 -1.945823
					CHANNELS 3 Xrotation Yrotation Zrotation
					JOINT RightToeBase
					{
						OFFSET -0.108140 -7.191069 7.372968
						CHANNELS 3 Xrotation Yrotation Zrotation
						JOINT RightToe_End
						{
							OFFSET -0.070227 0.081735 4.479403
							CHANNELS 3 Xrotation Yrotation Zrotation
							End Site
							{
								OFFSET 0 0 0
							}
						}
					}
				}
			}
		}
	}
	JOINT Spine_virtual
	{
		OFFSET 0.000000 0.000000 0.000000
		CHANNELS 3 Xrotation Yrotation Zrotation
		JOINT Spine
		{
			OFFSET 0.000000 6.876099 0.125700
			CHANNELS 3 Xrotation Yrotation Zrotation
			JOINT Spine1
			{
				OFFSET 0.000000 5.730043 0.104720
				CHANNELS 3 Xrotation Yrotation Zrotation
				JOINT Spine1_split
				{
					OFFSET 0.000000 5.730043 0.104720
					CHANNELS 3 Xrotation Yrotation Zrotation
					JOINT Spine2
					{
						OFFSET 0.000000 5.730043 0.104720
						CHANNELS 3 Xrotation Yrotation Zrotation
						JOINT Neck_virtual
						{
							OFFSET 0.000000 0.000000 0.000000
							CHANNELS 3 Xrotation Yrotation Zrotation
							JOINT Neck
							{
								OFFSET 0.000000 10.314075 0.188496
								CHANNELS 3 Xrotation Yrotation Zrotation
								JOINT Head
								{
									OFFSET 0.000000 7.643700 -2.377400
									CHANNELS 3 Xrotation Yrotation Zrotation
									JOINT HeadTop_End
									{
										OFFSET 0.000000 43.788605 -13.619600
										CHANNELS 3 Xrotation Yrotation Zrotation
										End Site
										{
											OFFSET 0 0 0
										}
									}
								}
							}
						}
						JOINT LeftShoulder_virtual
						{
							OFFSET 0.000000 0.000000 0.000000
							CHANNELS 3 Xrotation Yrotation Zrotation
							JOINT LeftShoulder
							{
								OFFSET 2.196100 4.412489 0.087492
								CHANNELS 3 Xrotation Yrotation Zrotation
								JOINT LeftShoulder_split
								{
									OFFSET 2.196100 4.412489 0.087492
									CHANNELS 3 Xrotation Yrotation Zrotation
									JOINT LeftArm
									{
										OFFSET 8.771219 -2.981674 -0.026999
										CHANNELS 3 Xrotation Yrotation Zrotation
										JOINT LeftForeArm
										{
											OFFSET 8.512804 0.000000 -0.000000
											CHANNELS 3 Xrotation Yrotation Zrotation
											JOINT LeftHand
											{
												OFFSET 18.484802 0.000000 -0.000000
												CHANNELS 3 Xrotation Yrotation Zrotation
												End Site
												{
													OFFSET 0 0 0
												}
											}
										}
									}
								}
							}
						}
						JOINT RightShoulder_virtual
						{
							OFFSET 0.000000 0.000000 0.000000
							CHANNELS 3 Xrotation Yrotation Zrotation
							JOINT RightShoulder
							{
								OFFSET -2.196100 4.412496 0.070690
								CHANNELS 3 Xrotation Yrotation Zrotation
								JOINT RightShoulder_split
								{
									OFFSET -2.196100 4.412496 0.070690
									CHANNELS 3 Xrotation Yrotation Zrotation
									JOINT RightArm
									{
										OFFSET -8.771282 -2.981682 -0.094208
										CHANNELS 3 Xrotation Yrotation Zrotation
										JOINT RightForeArm
										{
											OFFSET -8.494598 0.000000 0.000000
											CHANNELS 3 Xrotation Yrotation Zrotation
											JOINT RightHand
											{
												OFFSET -18.483803 0.000000 0.000001
												CHANNELS 3 Xrotation Yrotation Zrotation
												End Site
												{
													OFFSET 0 0 0
												}
											}
										}
									}
								}
							}
						}
					}
				}
			}
		}
	}
}
MOTION
Frames: 5
Frame Time: 0.03333333
-0.178295 25.783133 2.737167 0.000000 0.000000 0.000000 22.478747 -18.742580 7.689692 -77.526349 -2.846376 24.553637 64.171150 -3.445126 3.816928 -2.566703 3.018469 -27.167648 -3.244152 -0.052775 0.386435 0.000000 0.000000 0.000000 22.304423 -19.600117 8.096180 -66.290906 -1.924200 -27.439503 64.770137 6.508014 -6.567751 -17.416050 -7.622794 23.268740 -4.178283 0.766383 -1.265243 0.000000 0.000000 0.000000 24.423853 -20.889215 8.034899 16.037395 1.602495 -1.418392 10.049910 2.015832 -1.221052 1.141587 0.825590 0.662603 0.000000 0.000000 0.000000 10.225123 1.752303 -0.432703 -8.495289 4.921314 -9.119604 -40.946547 10.156595 8.948264 0.000000 0.000000 0.000000 10.048372 1.835160 -1.249528 3.651392 -6.201246 7.327900 -5.400844 -3.185475 -0.543532 -51.926769 4.577716 -61.039242 -0.766409 -84.058947 0.208039 0.000000 0.000000 0.000000 11.121213 2.251388 -0.597588 2.956993 13.188470 4.119867 1.433419 3.412111 1.752862 -41.968784 11.487378 45.999719 167.148499 88.413288 -167.873714 0.000000 0.000000 0.000000 
-0.139569 25.864641 2.807243 0.000000 0.000000 0.000000 22.839669 -18.641932 7.924426 -77.348894 -2.423317 24.051710 63.190397 -3.623906 4.025067 -2.816467 2.951812 -27.088882 -3.388089 -0.025004 0.491165 0.000000 0.000000 0.000000 22.661625 -19.648141 8.362859 -66.458792 -2.221591 -27.065612 64.171765 6.641457 -7.199471 -17.382111 -7.906317 23.466068 -4.139794 0.853546 -1.313580 0.000000 0.000000 0.000000 24.416405 -20.541504 8.166067 16.048819 1.646302 -1.384512 9.929843 2.070906 -1.287807 1.107435 0.439433 0.710034 0.000000 0.000000 0.000000 10.303383 1.774653 -0.492941 -8.051113 4.890616 -8.765920 -41.151903 10.957652 8.712895 0.000000 0.000000 0.000000 10.114508 1.866143 -1.194120 3.445408 -5.474750 6.414511 -5.510571 -3.183623 -0.725215 -50.500240 4.983714 -62.000031 -0.981424 -86.228720 -0.168002 0.000000 0.000000 0.000000 11.182135 2.190724 -0.698741 2.826258 13.032280 5.295992 1.127766 3.613476 1.606969 -40.371148 11.977390 46.790429 176.564761 85.088810 -177.402525 0.000000 0.000000 0.000000 
-0.143924 25.868286 2.867571 0.000000 0.000000 0.000000 23.160852 -18.686773 8.226566 -77.428677 -2.088320 23.840992 62.786794 -3.834477 4.156288 -3.042064 2.890967 -27.141679 -3.500003 -0.014463 0.653951 0.000000 0.000000 0.000000 23.111958 -19.874592 8.700845 -66.992906 -2.282529 -26.767202 64.110485 6.682921 -7.701319 -17.402678 -8.006154 23.578054 -3.968447 0.956790 -1.350930 0.000000 0.000000 0.000000 24.470980 -20.374473 8.329314 16.053521 1.605002 -1.359687 9.923299 1.982739 -1.320808 1.015083 0.292606 0.685673 0.000000 0.000000 0.000000 10.465561 1.660313 -0.542819 -7.543388 4.849686 -8.429266 -41.369851 11.759224 8.410694 0.000000 0.000000 0.000000 10.331526 1.755271 -1.099669 3.302963 -4.991161 5.865353 -5.425513 -3.122028 -0.811584 -48.883954 5.411375 -62.508020 0.754783 -88.830312 1.486173 0.000000 0.000000 0.000000 11.321910 1.980444 -0.775889 2.787835 12.812584 5.928421 0.825533 3.614105 1.496862 -39.388287 11.892657 48.027281 178.368327 81.256862 -179.303667 0.000000 0.000000 0.000000 
-0.186979 25.810518 2.914717 0.000000 0.000000 0.000000 23.492775 -18.845291 8.568925 -77.658978 -1.879752 23.887885 62.788338 -3.998058 4.204035 -3.275273 2.940456 -27.210198 -3.373354 -0.012260 0.820785 0.000000 0.000000 0.000000 23.636066 -20.226197 9.079491 -67.695712 -2.223251 -26.535449 64.459603 6.611496 -8.028909 -17.514618 -7.965169 23.499954 -3.675405 1.061576 -1.363123 0.000000 0.000000 0.000000 24.636380 -20.339806 8.489426 16.050905 1.489318 -1.324966 10.031795 1.807663 -1.318171 0.961171 0.267502 0.713700 0.000000 0.000000 0.000000 10.685347 1.459829 -0.581330 -7.082394 4.824910 -8.162176 -41.652392 12.547945 8.033843 0.000000 0.000000 0.000000 10.665393 1.549772 -0.987170 3.218848 -4.805903 5.363908 -5.130451 -2.971836 -0.761400 -47.212252 5.871260 -62.600986 176.384813 -88.703359 177.140027 0.000000 0.000000 0.000000 11.511768 1.687445 -0.825458 2.804183 12.604920 6.136885 0.577883 3.513193 1.444920 -38.759555 11.114432 49.512103 178.974111 77.264562 -179.987028 0.000000 0.000000 0.000000 
-0.260223 25.716991 2.928125 0.000000 0.000000 0.000000 23.841494 -19.124687 8.928886 -77.883151 -1.845201 24.097485 62.942037 -4.097555 4.211067 -3.503091 3.156701 -27.339475 -3.092280 -0.004738 0.967424 0.000000 0.000000 0.000000 24.148253 -20.663190 9.457886 -68.511742 -2.090801 -26.345281 65.086935 6.464086 -8.206448 -17.660275 -7.830475 23.393772 -3.489559 1.144852 -1.348161 0.000000 0.000000 0.000000 24.916991 -20.417621 8.664580 16.054795 1.319154 -1.263260 10.215326 1.598076 -1.279932 0.919030 0.277250 0.662405 0.000000 0.000000 0.000000 10.927014 1.233944 -0.615528 -6.711714 4.782446 -8.012370 -41.982837 13.346924 7.563874 0.000000 0.000000 0.000000 11.048970 1.311675 -0.895513 3.159996 -4.829926 4.610286 -4.873731 -2.692047 -0.555406 -45.628905 6.257860 -62.438557 178.203802 -86.750615 179.027878 0.000000 0.000000 0.000000 11.761278 1.403575 -0.854423 2.839848 12.436683 6.064681 0.346037 3.455425 1.406635 -38.194397 9.983267 50.868985 179.179167 73.694469 179.741346 0.000000 0.000000 0.000000 
